<?xml version="1.0" encoding="utf-8"?>
<svg version="1.1" id="Layer_1" xmlns="http://www.w3.org/2000/svg" xmlns:xlink="http://www.w3.org/1999/xlink" x="0px" y="0px"
	 viewBox="0 0 1080 1080" style="enable-background:new 0 0 1080 1080;" xml:space="preserve">
<style type="text/css">
	.st0{stroke:#000000;stroke-width:4;stroke-miterlimit:10;}
	.st1{fill:none;stroke:#000000;stroke-width:4;stroke-miterlimit:10;}
	.st2{fill:none;stroke:#FFFFFF;stroke-width:8;stroke-miterlimit:10;}
	.st3{fill:#FFFFFF;}
	.st4{display:none;fill:none;stroke:#000000;stroke-width:4;stroke-linejoin:round;stroke-miterlimit:10;}
	.st5{fill:none;stroke:#000000;stroke-miterlimit:10;}
	.st6{fill:#FFFFFF;stroke:#000000;stroke-width:4;stroke-miterlimit:10;}
	.st7{fill:none;stroke:#000000;stroke-width:8;stroke-miterlimit:10;}
	.st8{display:none;}
	.st9{display:inline;}
</style>
<rect class="st8" width="1080" height="1080"/>
<g class="st8">
	<g class="st9">
		<path class="st3" d="M540,900c-198.5,0-360-161.5-360-360s161.5-360,360-360s360,161.5,360,360S738.5,900,540,900z M540,189.3
			c-193.4,0-350.7,157.3-350.7,350.7S346.6,890.7,540,890.7S890.7,733.4,890.7,540S733.4,189.3,540,189.3z"/>
	</g>
	<g class="st9">
		<path class="st3" d="M540,792.3c-139.1,0-252.3-113.2-252.3-252.3S400.9,287.7,540,287.7S792.3,400.9,792.3,540
			S679.1,792.3,540,792.3z M540,296.9c-134,0-243.1,109-243.1,243.1S406,783.1,540,783.1S783.1,674,783.1,540S674,296.9,540,296.9z"
			/>
	</g>
	<g class="st9">
		<path class="st3" d="M293.3,731.3C250.5,676.1,227.8,610,227.8,540c0-20.6,2-41.2,6-61.3l18.2,3.6c-3.8,18.9-5.7,38.3-5.7,57.7
			c0,65.8,21.3,128,61.5,179.9L293.3,731.3z"/>
	</g>
	<g class="st9">
		<path class="st3" d="M781,738.5l-14.3-11.8c43.2-52.4,67-118.7,67-186.7c0-21.1-2.2-42.2-6.7-62.6l18.1-3.9
			c4.7,21.7,7.1,44.1,7.1,66.5C852.2,612.3,826.9,682.8,781,738.5z"/>
	</g>
	<g class="st9">
		<g>
			<path class="st3" d="M329.7,778.2l-4.1-4.1l-7.3,7.2l-10-10l7.3-7.2l-14.9-15l7.4-7.4l38.3-7.1l9.3,9.4l-22.7,22.6l4.1,4.1
				L329.7,778.2z M323.2,756.6l4.4-4.3c0.4-0.4,0.9-0.9,1.5-1.5c0.6-0.6,1.2-1.2,1.9-1.7c0.6-0.6,1.2-1.1,1.6-1.5
				c0.4-0.4,0.7-0.6,0.7-0.6l-0.3-0.3c-1.1,0.4-2,0.8-2.8,1c-0.8,0.2-1.7,0.5-2.9,0.7l-10.3,2L323.2,756.6z"/>
		</g>
		<g>
			<path class="st3" d="M352.1,808.1l-11.5-8.5l24.4-33.2l-10.4-7.6l6.9-9.4l32.3,23.7l-6.9,9.4l-10.4-7.6L352.1,808.1z"/>
		</g>
		<g>
			<path class="st3" d="M416.5,844.1l-12.9-6.3l9.5-19.4l-14.9-7.3l-9.5,19.4l-12.9-6.3l23.3-47.5L412,783l-8.6,17.6l14.9,7.3
				l8.6-17.6l12.9,6.3L416.5,844.1z"/>
		</g>
		<g>
			<path class="st3" d="M487.1,863.5l-30.7-6.6l11.1-51.7l30.7,6.6l-2.4,11.2l-16.7-3.6l-1.8,8.1l15.5,3.3l-2.4,11.2l-15.5-3.3
				l-2.1,9.8l16.7,3.6L487.1,863.5z"/>
		</g>
		<g>
			<path class="st3" d="M550.1,840.5c-0.3,6.1-1.6,11.2-4.1,15.2c-2.5,4-5.8,6.9-10.1,8.7c-4.2,1.9-9.2,2.7-14.8,2.4l-17.1-0.7
				l2.3-52.8l18.3,0.8c5.7,0.2,10.5,1.4,14.3,3.6c3.9,2.1,6.7,5.1,8.6,9C549.5,830.4,550.3,835.1,550.1,840.5z M535.3,840.4
				c0.1-3.2-0.2-5.9-0.9-8c-0.8-2.1-2-3.8-3.6-4.9c-1.7-1.1-3.8-1.7-6.4-1.9l-4.2-0.2l-1.3,29.6l3.2,0.1c4.3,0.2,7.6-0.9,9.7-3.4
				C533.9,849.3,535,845.5,535.3,840.4z"/>
		</g>
		<g>
			<path class="st3" d="M564.8,866.5l-5.1-52.6l14.3-1.4l5.1,52.6L564.8,866.5z"/>
		</g>
		<g>
			<path class="st3" d="M618.9,857.8l-13.9,3.1l-9-40.2l-12.6,2.8l-2.6-11.4l39.1-8.8l2.6,11.4l-12.6,2.8L618.9,857.8z"/>
		</g>
		<g>
			<path class="st3" d="M644,850.5l-17.9-49.8l13.5-4.9l17.9,49.8L644,850.5z"/>
		</g>
		<g>
			<path class="st3" d="M705.7,792.4c1.9,3.6,3.3,7.1,4,10.5c0.7,3.4,0.8,6.7,0.1,9.8c-0.7,3.1-2.1,6-4.4,8.7
				c-2.2,2.7-5.4,5.1-9.4,7.3c-3.9,2.1-7.6,3.4-11.1,3.8c-3.5,0.4-6.7,0.1-9.7-1.1c-3-1.1-5.7-2.9-8.2-5.4c-2.5-2.5-4.7-5.5-6.7-9.1
				c-2.6-4.8-4.1-9.5-4.4-13.9s0.6-8.5,2.9-12.3c2.3-3.8,6-7.1,11.3-9.9c5.3-2.9,10.1-4.2,14.5-4c4.4,0.2,8.3,1.6,11.8,4.4
				C700,783.8,703.1,787.6,705.7,792.4z M673.7,809.8c1.5,2.8,3.1,5,4.9,6.7c1.7,1.7,3.6,2.7,5.5,3c2,0.3,4.1-0.1,6.3-1.3
				c2.3-1.3,3.9-2.8,4.6-4.6c0.8-1.8,0.9-3.9,0.4-6.2c-0.5-2.3-1.5-4.9-3-7.7c-2.3-4.2-4.8-7.1-7.5-8.8c-2.7-1.7-5.8-1.6-9.2,0.3
				c-2.3,1.2-3.8,2.8-4.6,4.6c-0.8,1.9-0.9,4-0.5,6.3C671.2,804.4,672.2,807,673.7,809.8z"/>
		</g>
		<g>
			<path class="st3" d="M772.6,771.7l-14.2,12.2l-38.9-15.6l-0.2,0.2c0.8,0.8,1.8,1.7,2.9,2.9c1.1,1.1,2.2,2.3,3.4,3.5
				c1.1,1.2,2.1,2.3,3,3.3l15.6,18.1l-9.6,8.3l-34.5-40.1l14.1-12.2l38.6,15.3l0.2-0.1c-0.8-0.8-1.7-1.8-2.8-2.9
				c-1.1-1.1-2.1-2.2-3.2-3.4c-1.1-1.1-2-2.2-2.8-3.1l-15.6-18.1l9.6-8.3L772.6,771.7z"/>
		</g>
	</g>
	<g class="st9">
		<g>
			<path class="st3" d="M277.7,464.6l-50.4-15.9l4.3-13.7l50.4,15.9L277.7,464.6z"/>
		</g>
		<g>
			<path class="st3" d="M306.7,396.5l-8.3,16.8l-42,0.8l-0.1,0.3c1.1,0.4,2.3,0.9,3.8,1.5c1.5,0.6,3,1.3,4.5,1.9
				c1.5,0.7,2.9,1.3,4.1,1.9l21.4,10.6l-5.6,11.3l-47.4-23.5l8.3-16.7l41.5-0.9l0.1-0.2c-1.1-0.4-2.3-1-3.7-1.6
				c-1.4-0.6-2.8-1.2-4.3-1.9c-1.4-0.6-2.7-1.2-3.8-1.8l-21.4-10.6l5.7-11.4L306.7,396.5z"/>
		</g>
		<g>
			<path class="st3" d="M326.2,370.4l-8.6,11.4l-32.9-24.8l-7.8,10.3l-9.3-7l24.1-32l9.3,7l-7.7,10.3L326.2,370.4z"/>
		</g>
		<g>
			<path class="st3" d="M360.5,334l-22.4,22L301,318.4l22.4-22l8.1,8.2l-12.2,12l5.8,5.9l11.3-11.1l8.1,8.2l-11.3,11.1l7,7.1
				l12.2-12L360.5,334z"/>
		</g>
		<g>
			<path class="st3" d="M365.4,291.5l18.7-13.1l16.4,23.3c-1.7,2.3-3.8,4.8-6.4,7.3c-2.5,2.5-5.4,4.9-8.6,7.1
				c-4.2,2.9-8.4,4.7-12.7,5.3c-4.3,0.6-8.5-0.2-12.5-2.2c-4.1-2.1-7.9-5.6-11.4-10.7c-3.2-4.5-5.1-9.1-5.7-13.6
				c-0.6-4.5,0.2-8.9,2.3-13.1c2.1-4.2,5.6-8,10.6-11.4c2.7-1.9,5.5-3.4,8.2-4.6c2.8-1.2,5.4-2,7.7-2.5l2.7,11.8
				c-2.1,0.3-4.1,0.9-6.1,1.7c-1.9,0.8-3.9,1.9-5.8,3.2c-2.6,1.8-4.3,3.9-5,6.1c-0.8,2.3-0.8,4.6-0.1,7.1c0.7,2.4,1.8,4.8,3.5,7.2
				c1.9,2.7,3.9,4.7,5.9,6c2.1,1.3,4.2,1.9,6.3,1.9c2.1-0.1,4.3-0.8,6.4-2.3c0.7-0.5,1.5-1.1,2.4-1.9c0.9-0.8,1.6-1.4,2-1.9
				l-4.8-6.8l-7.7,5.4L365.4,291.5z"/>
		</g>
		<g>
			<path class="st3" d="M403.3,244.4c4.4-2,8.2-3.1,11.6-3.4c3.4-0.3,6.3,0.3,8.7,1.8c2.4,1.4,4.3,3.7,5.8,6.9
				c0.9,2,1.4,3.9,1.4,5.8c0.1,1.9-0.2,3.8-0.9,5.6c-0.6,1.8-1.6,3.6-2.9,5.3l23.6,14.6l-14.7,6.7l-18.2-12.9l-3.3,1.5l8,17.5
				l-13,5.9l-21.9-48.1L403.3,244.4z M407.6,254.3l-2.6,1.2l5,11l2.4-1.1c2-0.9,3.4-2.1,4.3-3.6c0.9-1.5,0.8-3.3-0.2-5.6
				c-0.7-1.6-1.8-2.5-3.2-2.9C411.8,252.9,409.9,253.2,407.6,254.3z"/>
		</g>
		<g>
			<path class="st3" d="M484.8,272.6l-4.9-9l-16.7,4.2L463,278l-15.2,3.8l3.9-55.7l18.5-4.6l29.8,47.3L484.8,272.6z M474.2,252.9
				l-4.3-7.9c-0.5-0.9-1.1-2.1-2-3.7c-0.9-1.6-1.7-3.2-2.6-4.9c-0.9-1.7-1.6-3.1-2.1-4.2c0.1,1.2,0.1,2.7,0.2,4.6
				c0,1.8,0.1,3.6,0.1,5.4c0,1.8,0,3.3,0,4.5l-0.1,9L474.2,252.9z"/>
		</g>
		<g>
			<path class="st3" d="M527,267.4l-14.3,1l-3-41.1l-12.9,0.9l-0.9-11.7l40-2.9l0.9,11.7l-12.8,0.9L527,267.4z"/>
		</g>
		<g>
			<path class="st3" d="M545.9,267.2l2.5-52.8l14.3,0.7l-2.5,52.8L545.9,267.2z"/>
		</g>
		<g>
			<path class="st3" d="M623.6,251.4c-0.8,4-2,7.5-3.6,10.6c-1.6,3.1-3.7,5.6-6.2,7.6c-2.5,2-5.5,3.3-8.9,3.9
				c-3.4,0.6-7.4,0.5-11.8-0.4c-4.4-0.9-8-2.2-10.9-4.1s-5.2-4.2-6.8-7c-1.6-2.8-2.6-5.9-2.9-9.4c-0.3-3.5-0.1-7.3,0.7-11.3
				c1.1-5.4,2.9-9.9,5.5-13.5c2.6-3.6,5.9-6.2,10.1-7.6c4.2-1.4,9.2-1.6,15-0.4c5.9,1.2,10.5,3.2,13.8,6.2c3.3,2.9,5.4,6.6,6.3,10.9
				C624.8,241.2,624.7,246,623.6,251.4z M588,244.4c-0.6,3.1-0.8,5.9-0.5,8.3c0.3,2.4,1,4.3,2.3,5.8c1.3,1.5,3.2,2.5,5.7,3
				c2.6,0.5,4.8,0.3,6.5-0.6c1.8-0.9,3.2-2.4,4.3-4.5s2-4.7,2.6-7.9c0.9-4.7,0.9-8.5-0.1-11.6c-1-3-3.4-4.9-7.2-5.7
				c-2.5-0.5-4.7-0.3-6.5,0.6c-1.8,0.9-3.3,2.5-4.4,4.6C589.5,238.6,588.6,241.2,588,244.4z"/>
		</g>
		<g>
			<path class="st3" d="M671.5,299.6l-17.2-7.5l-2.9-41.9l-0.3-0.1c-0.3,1.1-0.8,2.4-1.3,3.9c-0.5,1.5-1.1,3-1.7,4.6
				c-0.6,1.5-1.1,2.9-1.7,4.1l-9.5,21.9l-11.6-5l21-48.5l17.1,7.4l3,41.4l0.2,0.1c0.4-1.1,0.9-2.4,1.4-3.8s1.1-2.9,1.7-4.3
				c0.6-1.5,1.1-2.7,1.6-3.9l9.5-21.9l11.7,5.1L671.5,299.6z"/>
		</g>
		<g>
			<path class="st3" d="M782.6,319.6L738,350.8l-12.7-11.1l11.4-20.7c0.2-0.4,0.6-1,1.1-2s1.1-2,1.8-3.1c0.7-1.2,1.4-2.3,2.1-3.4
				s1.3-2,1.8-2.8c-0.7,0.6-1.5,1.3-2.5,2.2c-1,0.8-2.1,1.7-3.1,2.5c-1.1,0.8-2,1.6-2.9,2.2c-0.9,0.6-1.5,1.1-1.8,1.3l-19,14
				l-12.7-11.1l25-48.4l10.4,9.1l-13.1,23.7c-0.3,0.6-0.8,1.4-1.4,2.5c-0.6,1.1-1.3,2.2-2,3.5c-0.7,1.2-1.4,2.4-2.1,3.6
				c-0.7,1.1-1.3,2.1-1.8,2.8c1.1-1,2.4-2.1,3.9-3.3c1.5-1.2,3-2.4,4.6-3.7c1.6-1.2,3.1-2.3,4.5-3.4c1.4-1,2.5-1.9,3.4-2.5l16.7-12
				l10,8.7l-9.8,18c-0.5,0.9-1.2,2.2-2,3.7c-0.8,1.5-1.8,3.2-2.8,4.9c-1,1.7-2,3.5-3,5.1c-1,1.7-1.9,3.1-2.8,4.3
				c0.9-0.8,2.1-1.8,3.6-3c1.5-1.2,2.9-2.3,4.3-3.4c1.4-1.1,2.5-1.9,3.2-2.4l21.9-16.1L782.6,319.6z"/>
		</g>
		<g>
			<path class="st3" d="M768,389.3l-18.9-25.1l42.2-31.8l18.9,25.1l-9.2,6.9l-10.3-13.7l-6.6,5l9.5,12.6l-9.2,6.9l-9.5-12.6l-8,6
				l10.3,13.7L768,389.3z"/>
		</g>
		<g>
			<path class="st3" d="M787.1,423.2L772,395.7l46.3-25.5l15.2,27.5l-10,5.5l-8.3-15l-7.3,4l7.6,13.9l-10,5.5l-7.7-13.9l-8.7,4.8
				l8.3,15L787.1,423.2z"/>
		</g>
		<g>
			<path class="st3" d="M805.5,472.3l-5.4-15.2l15.5-16.6l-3.8-3.1l-16.7,5.9l-4.8-13.5l49.8-17.8l4.8,13.5l-21.6,7.7
				c1.3,0.2,2.6,0.4,4,0.8c1.4,0.3,2.6,0.7,3.9,1.1l19,5l5.2,14.7l-27.9-7.7L805.5,472.3z"/>
		</g>
	</g>
</g>
<g>
	<g>
		<path class="st3" d="M540,900L333.5,722.4c-42.4-36.4-66.6-89.4-66.6-145.2V248.4l3.5-2c1.1-0.7,115.5-66.4,269.6-66.4
			s268.5,65.7,269.6,66.4l3.5,2v328.8c0,55.9-24.3,108.8-66.7,145.2L540,900z M280.9,256.5v320.6c0,51.8,22.5,100.8,61.8,134.6
			L540,881.5l197.3-169.7c39.3-33.8,61.8-82.8,61.8-134.6V256.5C779.1,245.8,675.4,194,540,194C404.4,194,300.8,245.8,280.9,256.5z"
			/>
	</g>
	<g>
		<g>
			<path class="st3" d="M723,374.2c-2.9,8.1-7.7,22-9.8,29.4c-1.3,4.6-2.5,9-3.3,12.8c-2.5,11-4.3,22.3-5.2,33.5
				c-1.4,0.3-2.7,0.6-4.1,0.9c-9.1,1.9-18.3,3.8-27.4,5.7c-9.1-1.9-18.3-3.8-27.4-5.7c-1.4-0.3-2.7-0.6-4.1-0.9
				c-0.9-11.3-2.7-22.5-5.2-33.5c-0.9-3.8-2-8.2-3.3-12.8c-2.1-7.4-6.5-21-9.3-29.1c0.1,0.1,0.3,0.2,0.4,0.2c0.3,0.2,0.7,0.4,1,0.6
				c1.6,0.9,3.1,1.9,4.5,3c4.4,3.3,8.2,7.2,11.3,11.7c0.1,0.2,0.1,0.4,0.1,0.7c1.5,6.9,3.1,15.2,4.6,22c0.1-0.5,1-2.2,1.1-2.7
				c0.6,0.2,1.2,0.4,1.8,0.6c1.1,0.3,2.1,0.7,3.2,1c2.2,0.7,4.4,1.4,6.5,2.1c1.6,0.5,3.2,1,4.8,1.5c3.2,1,6.5,2.1,9.9,3.1
				c4.6-1.5,9-2.9,13.5-4.3c0.9-0.3,1.9-0.6,2.8-0.9c2.8-0.9,5.5-1.8,8.3-2.6c0.6-0.2,1.1-0.3,1.7-0.5c0.1,0.5,0.6,2.3,0.7,2.8
				c1.2-5.5,2.7-12,4-18c0.2-0.7,0.3-1.4,0.5-2.1c0.2-0.9,0.4-1.8,0.6-2.7c3.1-4.5,7-8.4,11.3-11.7c1.6-1.2,3.2-2.3,4.9-3.3
				c0.2-0.1,0.4-0.2,0.6-0.3C722.3,374.6,722.7,374.4,723,374.2z"/>
		</g>
		<g>
			<path class="st3" d="M696.2,286.5C696.2,286.5,696.2,286.5,696.2,286.5c-14.7-6.6-31.5-6.6-46.2,0l0,0
				c-18,8.1-30.4,25.3-30.4,45.2l0,40.8c1.3,0.6,2.6,1.2,4.1,2.1c0.1,0.1,0.3,0.2,0.4,0.2c0.3,0.2,0.7,0.4,1,0.6
				c1.6,0.9,3.1,1.9,4.5,3c4.4,3.3,8.2,7.2,11.3,11.7c0.1,0.2,0.1,0.4,0.1,0.7c1.5,6.9,3.1,15.2,4.6,22c0.1-0.5,1-2.2,1.1-2.7
				c0.6,0.2,1.2,0.4,1.8,0.6c1.1,0.3,2.1,0.7,3.2,1c2.2,0.7,4.4,1.4,6.5,2.1c1.6,0.5,3.2,1,4.8,1.5c3.2,1,6.5,2.1,9.9,3.1
				c4.6-1.5,9-2.9,13.5-4.3c0.9-0.3,1.9-0.6,2.8-0.9c2.8-0.9,5.5-1.8,8.3-2.6c0.6-0.2,1.1-0.4,1.7-0.5l0,0c0.1,0.5,0.6,2.3,0.7,2.8
				c1.2-5.5,2.7-12,4-18c0.2-0.7,0.3-1.4,0.5-2.1c0.2-0.9,0.4-1.8,0.6-2.7c3.1-4.5,7-8.4,11.3-11.7c1.6-1.2,3.2-2.3,4.9-3.3
				c0.2-0.1,0.4-0.2,0.6-0.3c0.3-0.2,0.7-0.4,1-0.5c1.2-0.7,2.4-1.2,3.5-1.7l0,0l0-40.8C726.5,311.7,714.1,294.5,696.2,286.5z
				 M692.7,288c0.8,0,1.4,0.6,1.4,1.3s-0.7,1.3-1.4,1.3l0,0c-0.8,0-1.5-0.6-1.5-1.3S691.9,288,692.7,288z M689.7,302
				c1.2,0,2.2,0.8,2.2,1.9s-1,1.9-2.2,1.9l0,0c-1.2,0-2.2-0.8-2.2-1.9C687.5,302.8,688.4,302,689.7,302z M658.5,303.8
				c0,1-1,1.9-2.2,1.9l0,0c-1.2,0-2.2-0.8-2.2-1.9c0-1,1-1.9,2.2-1.9S658.5,302.8,658.5,303.8z M653.3,288c0.8,0,1.4,0.6,1.4,1.3
				s-0.7,1.3-1.4,1.3c-0.8,0-1.5-0.6-1.5-1.3C651.9,288.6,652.5,288,653.3,288z M724.1,371c-0.8,0.4-1.5,0.8-2.3,1.2
				c-0.3,0.2-0.7,0.4-1,0.6c-0.2,0.1-0.4,0.3-0.6,0.4c-6.7,4-12.5,9.3-17,15.7l-0.3,0.4l-0.1,0.5c-0.1,0.6-0.3,1.2-0.4,1.8l-0.2,0.9
				c-0.1,0.3-0.2,0.7-0.2,1c-0.1,0.4-0.2,0.7-0.2,1.1c-0.3,1.5-0.7,3-1,4.5c-0.7,3-1.3,6-2,8.9l-0.1,0c-0.3,0.1-0.6,0.2-1,0.3
				c-0.2,0.1-0.5,0.2-0.7,0.2c-1.9,0.6-3.8,1.2-5.6,1.8c-0.9,0.3-1.8,0.6-2.7,0.9c-0.9,0.3-1.9,0.6-2.8,0.9c-3.1,1-6.1,1.9-9.3,3
				c-1.1,0.4-2.3,0.7-3.4,1.1c-1.9-0.6-3.8-1.2-5.6-1.8l-3.5-1.1h0c-1.6-0.5-3.2-1-4.8-1.5c-2.2-0.7-4.3-1.4-6.5-2.1
				c-0.5-0.2-1.1-0.3-1.6-0.5c-0.5-0.2-1-0.3-1.6-0.5l0,0l0,0l-0.4-0.1c-0.4-0.1-0.9-0.3-1.4-0.4l-0.5-0.2c-0.5-2.2-0.9-4.5-1.4-6.7
				c-0.7-3.6-1.5-7.4-2.2-10.7v0v0c0-0.1,0-0.2-0.1-0.3c0-0.1-0.1-0.3-0.1-0.4l-0.1-0.4l-0.3-0.4c-3.3-4.7-7.3-8.8-11.9-12.3
				c-1.5-1.1-3.1-2.2-4.7-3.2c-0.4-0.2-0.7-0.4-1.1-0.6c-0.1-0.1-0.3-0.2-0.4-0.2c-0.9-0.5-1.9-1-2.9-1.5l0-39.3
				c0-9.1,2.8-18,8-25.7c4.4-6.4,10.3-11.7,17.3-15.6c0,0.3,0,0.6,0,0.9c0,6,1.2,11.9,3.5,17.5l0,0l0,0c0.3,0.7,0.9,1.2,1.5,1.5l0,0
				l0,0c6.7,2.3,13.6,3.4,20.7,3.4c7,0,14-1.2,20.7-3.4l0,0l0,0c0.7-0.3,1.3-0.8,1.5-1.5l0,0l0,0c2.3-5.5,3.5-11.5,3.5-17.5
				c0-0.3,0-0.6,0-0.9c7,3.8,12.9,9.1,17.3,15.6c5.3,7.7,8,16.6,8,25.7L724.1,371z"/>
		</g>
		<g>
			<path class="st3" d="M673.1,390.9l-1.2-2.9c-1.7-4.3-3.7-8.5-6-12.6c-0.8-1.4-1.6-2.8-2.4-4.2c-2.5-4.2-5.4-8.2-8.4-12l-0.5-0.7
				l18.5-31.8l1.1,1.9c5.7,9.7,11.3,19.4,17,29.2l0.4,0.7l-0.5,0.7c-3,3.8-5.9,7.9-8.4,12c-0.9,1.4-1.7,2.8-2.4,4.2
				c-2.2,4.1-4.2,8.3-6,12.6L673.1,390.9z M657.6,358.2c2.9,3.7,5.6,7.6,8.1,11.6c0.9,1.4,1.7,2.9,2.5,4.3c1.8,3.3,3.5,6.6,4.9,10.1
				c1.5-3.4,3.1-6.8,4.9-10.1c0.8-1.4,1.6-2.9,2.5-4.3c2.4-4,5.2-7.9,8.1-11.6c-5.2-8.8-10.3-17.7-15.5-26.5L657.6,358.2z"/>
		</g>
	</g>
	<path class="st3" d="M540,516.1v374.6l201.9-173.7c40.8-35,64.2-86.2,64.2-139.9v-61.1H540z M616.7,698.6c0,0-14.4-13.6,7.6-39.4
		c1.5-1.6,2.6-3.5,3.3-5.6c3.5-10.9-7.1-22.9-7.1-22.9s-11.1,11.6-18.9,14.2c-0.5,0.2-0.9,0.5-1.1,1c-0.7,1.7-2.5,5.4-4.7,7.1
		c-1.1,0.8-2.2,1.1-3.4,0.4c-0.5-0.3-1-0.4-1.5-0.3c-2.6,0.3-10.3,0.5-10.4-8.9c0-1.7,0.4-3.3,1.2-4.7l4.1-7.2
		c0.9-1.5,1.5-3.2,1.9-4.9c0.6-2.4,1.7-6.3,3.8-10c-0.1,0.1-0.6,0.8-2.1,1.3c-1,0.3-2.5,0.6-4.5,0.6c-0.4,0-0.8,0-1.2-0.1
		c0,0,7.1-18.2,16.2-18.2c0,0,0.2-1.5,0.5-3.7c0.5-4.1,1-10.5,0-13.7c0,0,5.6,2.5,7.6,8.6c0,0,1.8-8.6-4-13.4c0.1,0,7.8,0,14.5,12.4
		c18.4-3,37.2,3.2,50.2,16.5c-3.5-1-7.1-1.8-10.7-2.1c-0.3,0-0.6-0.1-1-0.1c2.2,1.1,4.4,2.3,6.4,3.7c8.2,6,10.1,14.3,14.1,23.8
		c1.5,3.5,2.5,8.9,2.7,12.7c0.1,1.2,0.1,2.3,0.1,3.5c0,3-1.9,15.8-34,22.8C613.9,678.9,616.7,690.3,616.7,698.6z M687,671.1
		c-9.7,9.4-22.7,14.4-41.2,18.9c-10.5,2.6-17.4,0.9-22.7,13.2c0,0.1,0,0.1,0,0.2l-0.1,0.1c0-0.1,0.1-0.2,0.1-0.3
		c0.5-13.2,7.2-15.7,17.7-18.3c18.4-4.5,30.1-9.3,40.5-17.9c8.9-7.3,8.3-21.2,9.1-29.4c0,0,2.7-44.4,17.9-48.6
		c7.9-2.2,25.9-8.1,34.3-12.1c15-7.1,22.6-20.6,22.6-20.6c-5,16.6-12.9,24.3-22.2,27.9c-8.5,3.3-14.4,5.5-29.6,9.7
		c-15.2,4.3-17,44.4-17,44.4C696,643.4,695.6,662.7,687,671.1z M739.3,649c-7.7,4.3-22.2,5.3-27.2,6.9c-5,1.6-9,4.4-12.4,6
		c0,0,1.8-10.1,12.4-14.2c10.7-4.1,19.2-5.4,23.2-6.7c4.1-1.4,15-6.8,17.8-11.1C753.2,630,749.3,643.2,739.3,649z M745.1,627.4
		c-5,3.3-20.6,5.6-25.8,7.3c-5.2,1.6-11.7,5.5-17,9.8c0,0,2-14.5,19.8-20.1l15.1-4.2c0,0,18.1-6.3,21.9-12.6
		C759.2,607.5,754.7,621.8,745.1,627.4z M754.9,602.4c-5.7,5.3-14,7.7-16.8,8.6c-2.8,0.9-14.6,3.1-17.3,4.3
		c-2.8,1.2-6.4,2.6-12.4,8.4c0,0,2.4-15.3,11.7-18.5c9.3-3.3,15.3-5,17.5-5.7c2.5-0.9,7.1-2.4,13-5.9c4.4-2.6,12-8.6,15.1-12.3
		C765.7,581.3,760.5,597,754.9,602.4z"/>
	<g>
		<g>
			<path class="st3" d="M452.9,592.3c-1.9,1.4-3.7,3.1-5.5,4.9c-1.9,1.9-3.5,3.9-5,6.2l-2.9-7.4l-3.2-8.6l-15.7-40.7l-15.8,40.9
				l-3.2,8.4l-2.8,7.4c-1.4-2.2-3.1-4.2-4.9-6.1c-1.8-2-3.7-3.7-5.7-5.2c-10.6-8.4-22.3-11.4-22.3-11.4c1.2,1.2,2.2,2.6,3.2,4.3
				c1.2,2,2.2,4.5,3.1,7.1l0.2,0.4c4.6,14.4,4.6,33.5,4.6,33.5l87.4,0.2c0,0,0.1-20.2,5.1-34.6c0.8-2.3,1.6-4.4,2.7-6.2l0.2-0.3
				c0.9-1.5,1.9-3,3-4.1C475.2,580.9,463.5,584,452.9,592.3z M420.6,605.7c2.1,0,3.8,3,3.8,6.7c0,3.7-1.7,6.7-3.8,6.7
				c-2.1,0-3.8-3-3.8-6.7C416.8,608.7,418.5,605.7,420.6,605.7z M388.4,605.9c1.8-0.3,3.8,2.4,4.4,6c0.7,3.7-0.2,6.9-2,7.2
				c-1.8,0.3-3.8-2.4-4.4-6C385.7,609.5,386.6,606.2,388.4,605.9L388.4,605.9z M450,619.3C450,619.3,449.9,619.2,450,619.3
				c-1.8-0.3-2.5-3.5-1.9-7.2c0.7-3.7,2.6-6.4,4.2-6.1c1.6,0.3,2.4,3.5,1.8,7.2c-0.6,3.4-2.3,5.9-3.8,6.1
				C450.2,619.3,450.1,619.3,450,619.3L450,619.3z"/>
		</g>
		<g>
			<path class="st3" d="M452.9,720.3c-37.8,0.1-54.1-55.3-54.1-55.3c-10.8,16.7-32.5,16.8-32.5,16.8c21.7-11.2,10.5-44.7,10.5-44.7
				h16.9l57.8,0h12.8c-21.7,27.8,10.2,44.4,10.2,44.4c-21.6,0.1-37.8-16.6-37.8-16.6C425.9,703.8,452.9,720.3,452.9,720.3z"/>
		</g>
		<g>
			<polygon class="st3" points="355,683.8 358.8,685 361.2,688.3 362.4,684.4 365.7,682 361.8,680.7 359.5,677.4 358.3,681.3 			"/>
		</g>
		<g>
			<polygon class="st3" points="453.5,721.2 455.6,724.7 455.2,728.8 458.7,726.6 462.7,727 460.6,723.5 460.9,719.3 457.5,721.5 
							"/>
		</g>
		<g>
			<polygon class="st3" points="475.7,681.2 479.6,682 482.3,685.1 483.1,681.1 486.1,678.3 482.2,677.5 479.5,674.4 478.7,678.5 
							"/>
		</g>
	</g>
	<g>
		<ellipse class="st3" cx="391.9" cy="351.1" rx="2" ry="1.9"/>
		<polygon class="st3" points="354.7,363.2 459.2,363.2 451.6,356.6 451.2,356.6 362.7,356.6 362.3,356.6 		"/>
		<path class="st3" d="M454.2,353.1c1.1,0,2-0.9,2-1.9c0-1.1-0.9-1.9-2-1.9c-1.1,0-2,0.9-2,1.9C452.3,352.2,453.2,353.1,454.2,353.1
			z"/>
		<ellipse class="st3" cx="423" cy="351.1" rx="2" ry="1.9"/>
		<ellipse class="st3" cx="360.7" cy="351.1" rx="2" ry="1.9"/>
		<path class="st3" d="M273.9,252.4v263.7H540V187C385.9,187,273.9,252.4,273.9,252.4z M424.7,294.7c0,0,7.8,3,20.9,16.6
			c10.9,11.3,12.1,12.5,12.3,12.6c0,0,0,0,0,0s0,0,0,0c0,0-2.9,3.9-7.8,1.6l-8.6-6.3l-10.9-6.3c0,0-0.2-3.3-2.6-4.4
			c-0.4-0.2-0.8-0.2-1.1-0.2l-24.1,0.4c0,0-1.2,0.9,0,1.8l22.9-0.6c1.4,0,2.8,0.6,3.2,2.6c0.1,0.5,0,0.9-0.3,1.3
			c-0.6,0.9-1.8,1.9-5.6,2.3l-32.8,4.3c0,0-3.4,0.9-7.6-2.8l-8.4-8.3l18.1-18.2l5.2,4L424.7,294.7z M383.7,282.3
			c1.2-0.3,2.4-0.5,3.6-0.8l5,5l-22.9,23L354,295.1C363.1,289.2,373.1,284.9,383.7,282.3z M456.1,447.5c-6.2,3.6-12.8,6.6-19.7,8.8
			c-0.4,0.1-0.8,0.2-1.2,0.4l-7.9-6.8l4.1-4l-2.1-2.1l-5.5,5.5l-32.5-3.6c0,0-2.7-1.6-6.1-3.8l2.9-3.4l-3.7-1.3l-2.2,2.6
			c-3.2-2.5-8-6.7-12.6-11.5l2.2-2.5l-0.2,0.2l-3.1-2.8l-1.8,1.8c-7.3-7.6-8.3-8.6-8.5-8.7c0.1-0.1,3-3.9,7.8-1.6l6.3,4.6l-1.6,1.6
			l3,2.6l1.8-2l10,5.8c0,0,0.2,3.3,2.6,4.4c0.2,0.1,0.4,0.2,0.6,0.2l-2.2,2.6l3.8,1.3l2.8-3.3l7.1-0.1l4.5-0.1l8.6-0.1
			c0,0,0.5-1.2-0.1-1.6l-6.6,0.2l-0.5-2.7l-5.2,0.5l0.4,2.3l-9.5,0.3c-0.3,0-0.7,0-1-0.1c-0.9-0.3-2.5-1-2.9-3c-0.1-0.5,0-1,0.3-1.3
			c0.6-0.9,2.5-2.1,6.3-2.5l5.5-0.9l0.4,2.3l5.2-0.5v0l-0.4-2.4l20.7-2.7l15.8,11.3l-5.6,5.7l2.3,2.1l4-3.9L456.1,447.5
			C456.2,447.5,456.1,447.5,456.1,447.5z M353.9,406.3c0,0,2.6-4.8,2.5-6.7l0-0.6h101.3l0,0.6c-0.1,1.7,2.5,6.7,2.5,6.7H353.9z
			 M377.4,391.5v-15.2h13.3v5.7h-7.6v9.5h17.1v-15.2h4.8l0,0.4l-0.5,4.7h4.9l-0.5-4.7l0-0.4h4.8v15.2h17.1V382h-7.6v-5.7h13.3v15.2
			h17.1V382H446v-5.7h13.2l-1.4,20.4H356.2l-1.4-20.4h13.2v5.7h-7.6v9.5H377.4z M461.5,355.9c0,0.4-0.4,0.7-0.8,0.7h-8.6l7.9,6.9
			l-0.8,10.9h-15.2v9.5h7.6v5.7h-13.3v-15.2h-17.1v9.5h7.6v5.7h-13.3v-15.2H409c0.7-0.6,1.1-1.4,1.1-2.4c0-1.3-0.8-2.5-2.1-2.9
			c-0.7-0.2-1.4-0.2-2.1,0c-1.2,0.4-2.1,1.6-2.1,2.9c0,0.9,0.4,1.8,1.1,2.4h-6.5v15.2H385v-5.7h7.6v-9.5h-17.1v15.2h-13.3v-5.7h7.6
			v-9.5h-15.2l-0.8-10.9l8-6.9h-8.7c-0.4,0-0.7-0.3-0.8-0.7l-0.7-10.3l110.4,0.1L461.5,355.9z M351.7,343.6
			c1.2-8.2,10.5-8.2,13.6-8.2h83.4c3.1,0,12.3,0,13.6,8.2H351.7z"/>
	</g>
</g>
</svg>
