<?xml version="1.0" encoding="utf-8"?>
<svg version="1.1" id="Layer_1" xmlns="http://www.w3.org/2000/svg" xmlns:xlink="http://www.w3.org/1999/xlink" x="0px" y="0px"
	 viewBox="0 0 1080 1080" style="enable-background:new 0 0 1080 1080;" xml:space="preserve">
<style type="text/css">
	.st0{stroke:#000000;stroke-width:4;stroke-miterlimit:10;}
	.st1{fill:none;stroke:#000000;stroke-width:4;stroke-miterlimit:10;}
	.st2{fill:none;stroke:#FFFFFF;stroke-width:8;stroke-miterlimit:10;}
	.st3{fill:#FFFFFF;}
	.st4{display:none;fill:none;stroke:#000000;stroke-width:4;stroke-linejoin:round;stroke-miterlimit:10;}
	.st5{fill:none;stroke:#000000;stroke-miterlimit:10;}
	.st6{fill:#FFFFFF;stroke:#000000;stroke-width:4;stroke-miterlimit:10;}
	.st7{fill:none;stroke:#000000;stroke-width:8;stroke-miterlimit:10;}
	.st8{display:none;}
</style>
<rect class="st8" width="1080" height="1080"/>
<g>
	<g>
		<path class="st3" d="M540,900c-198.5,0-360-161.5-360-360s161.5-360,360-360s360,161.5,360,360S738.5,900,540,900z M540,189.3
			c-193.4,0-350.7,157.3-350.7,350.7S346.6,890.7,540,890.7S890.7,733.4,890.7,540S733.4,189.3,540,189.3z"/>
	</g>
	<g>
		<path class="st3" d="M540,792.3c-139.1,0-252.3-113.2-252.3-252.3S400.9,287.7,540,287.7S792.3,400.9,792.3,540
			S679.1,792.3,540,792.3z M540,296.9c-134,0-243.1,109-243.1,243.1S406,783.1,540,783.1S783.1,674,783.1,540S674,296.9,540,296.9z"
			/>
	</g>
	<g>
		<path class="st3" d="M293.3,731.3C250.5,676.1,227.8,610,227.8,540c0-20.6,2-41.2,6-61.3l18.2,3.6c-3.8,18.9-5.7,38.3-5.7,57.7
			c0,65.8,21.3,128,61.5,179.9L293.3,731.3z"/>
	</g>
	<g>
		<path class="st3" d="M781,738.5l-14.3-11.8c43.2-52.4,67-118.7,67-186.7c0-21.1-2.2-42.2-6.7-62.6l18.1-3.9
			c4.7,21.7,7.1,44.1,7.1,66.5C852.2,612.3,826.9,682.8,781,738.5z"/>
	</g>
	<g>
		<g>
			<path class="st3" d="M329.7,778.2l-4.1-4.1l-7.3,7.2l-10-10l7.3-7.2l-14.9-15l7.4-7.4l38.3-7.1l9.3,9.4l-22.7,22.6l4.1,4.1
				L329.7,778.2z M323.2,756.6l4.4-4.3c0.4-0.4,0.9-0.9,1.5-1.5c0.6-0.6,1.2-1.2,1.9-1.7c0.6-0.6,1.2-1.1,1.6-1.5
				c0.4-0.4,0.7-0.6,0.7-0.6l-0.3-0.3c-1.1,0.4-2,0.8-2.8,1c-0.8,0.2-1.7,0.5-2.9,0.7l-10.3,2L323.2,756.6z"/>
		</g>
		<g>
			<path class="st3" d="M352.1,808.1l-11.5-8.5l24.4-33.2l-10.4-7.6l6.9-9.4l32.3,23.7l-6.9,9.4l-10.4-7.6L352.1,808.1z"/>
		</g>
		<g>
			<path class="st3" d="M416.5,844.1l-12.9-6.3l9.5-19.4l-14.9-7.3l-9.5,19.4l-12.9-6.3l23.3-47.5L412,783l-8.6,17.6l14.9,7.3
				l8.6-17.6l12.9,6.3L416.5,844.1z"/>
		</g>
		<g>
			<path class="st3" d="M487.1,863.5l-30.7-6.6l11.1-51.7l30.7,6.6l-2.4,11.2l-16.7-3.6l-1.8,8.1l15.5,3.3l-2.4,11.2l-15.5-3.3
				l-2.1,9.8l16.7,3.6L487.1,863.5z"/>
		</g>
		<g>
			<path class="st3" d="M550.1,840.5c-0.3,6.1-1.6,11.2-4.1,15.2c-2.5,4-5.8,6.9-10.1,8.7c-4.2,1.9-9.2,2.7-14.8,2.4l-17.1-0.7
				l2.3-52.8l18.3,0.8c5.7,0.2,10.5,1.4,14.3,3.6c3.9,2.1,6.7,5.1,8.6,9C549.5,830.4,550.3,835.1,550.1,840.5z M535.3,840.4
				c0.1-3.2-0.2-5.9-0.9-8c-0.8-2.1-2-3.8-3.6-4.9c-1.7-1.1-3.8-1.7-6.4-1.9l-4.2-0.2l-1.3,29.6l3.2,0.1c4.3,0.2,7.6-0.9,9.7-3.4
				C533.9,849.3,535,845.5,535.3,840.4z"/>
		</g>
		<g>
			<path class="st3" d="M564.8,866.5l-5.1-52.6l14.3-1.4l5.1,52.6L564.8,866.5z"/>
		</g>
		<g>
			<path class="st3" d="M618.9,857.8l-13.9,3.1l-9-40.2l-12.6,2.8l-2.6-11.4l39.1-8.8l2.6,11.4l-12.6,2.8L618.9,857.8z"/>
		</g>
		<g>
			<path class="st3" d="M644,850.5l-17.9-49.8l13.5-4.9l17.9,49.8L644,850.5z"/>
		</g>
		<g>
			<path class="st3" d="M705.7,792.4c1.9,3.6,3.3,7.1,4,10.5c0.7,3.4,0.8,6.7,0.1,9.8c-0.7,3.1-2.1,6-4.4,8.7
				c-2.2,2.7-5.4,5.1-9.4,7.3c-3.9,2.1-7.6,3.4-11.1,3.8c-3.5,0.4-6.7,0.1-9.7-1.1c-3-1.1-5.7-2.9-8.2-5.4c-2.5-2.5-4.7-5.5-6.7-9.1
				c-2.6-4.8-4.1-9.5-4.4-13.9s0.6-8.5,2.9-12.3c2.3-3.8,6-7.1,11.3-9.9c5.3-2.9,10.1-4.2,14.5-4c4.4,0.2,8.3,1.6,11.8,4.4
				C700,783.8,703.1,787.6,705.7,792.4z M673.7,809.8c1.5,2.8,3.1,5,4.9,6.7c1.7,1.7,3.6,2.7,5.5,3c2,0.3,4.1-0.1,6.3-1.3
				c2.3-1.3,3.9-2.8,4.6-4.6c0.8-1.8,0.9-3.9,0.4-6.2c-0.5-2.3-1.5-4.9-3-7.7c-2.3-4.2-4.8-7.1-7.5-8.8c-2.7-1.7-5.8-1.6-9.2,0.3
				c-2.3,1.2-3.8,2.8-4.6,4.6c-0.8,1.9-0.9,4-0.5,6.3C671.2,804.4,672.2,807,673.7,809.8z"/>
		</g>
		<g>
			<path class="st3" d="M772.6,771.7l-14.2,12.2l-38.9-15.6l-0.2,0.2c0.8,0.8,1.8,1.7,2.9,2.9c1.1,1.1,2.2,2.3,3.4,3.5
				c1.1,1.2,2.1,2.3,3,3.3l15.6,18.1l-9.6,8.3l-34.5-40.1l14.1-12.2l38.6,15.3l0.2-0.1c-0.8-0.8-1.7-1.8-2.8-2.9
				c-1.1-1.1-2.1-2.2-3.2-3.4c-1.1-1.1-2-2.2-2.8-3.1l-15.6-18.1l9.6-8.3L772.6,771.7z"/>
		</g>
	</g>
	<g>
		<g>
			<path class="st3" d="M277.7,464.6l-50.4-15.9l4.3-13.7l50.4,15.9L277.7,464.6z"/>
		</g>
		<g>
			<path class="st3" d="M306.7,396.5l-8.3,16.8l-42,0.8l-0.1,0.3c1.1,0.4,2.3,0.9,3.8,1.5c1.5,0.6,3,1.3,4.5,1.9
				c1.5,0.7,2.9,1.3,4.1,1.9l21.4,10.6l-5.6,11.3l-47.4-23.5l8.3-16.7l41.5-0.9l0.1-0.2c-1.1-0.4-2.3-1-3.7-1.6
				c-1.4-0.6-2.8-1.2-4.3-1.9c-1.4-0.6-2.7-1.2-3.8-1.8l-21.4-10.6l5.7-11.4L306.7,396.5z"/>
		</g>
		<g>
			<path class="st3" d="M326.2,370.4l-8.6,11.4l-32.9-24.8l-7.8,10.3l-9.3-7l24.1-32l9.3,7l-7.7,10.3L326.2,370.4z"/>
		</g>
		<g>
			<path class="st3" d="M360.5,334l-22.4,22L301,318.4l22.4-22l8.1,8.2l-12.2,12l5.8,5.9l11.3-11.1l8.1,8.2l-11.3,11.1l7,7.1
				l12.2-12L360.5,334z"/>
		</g>
		<g>
			<path class="st3" d="M365.4,291.5l18.7-13.1l16.4,23.3c-1.7,2.3-3.8,4.8-6.4,7.3c-2.5,2.5-5.4,4.9-8.6,7.1
				c-4.2,2.9-8.4,4.7-12.7,5.3c-4.3,0.6-8.5-0.2-12.5-2.2c-4.1-2.1-7.9-5.6-11.4-10.7c-3.2-4.5-5.1-9.1-5.7-13.6
				c-0.6-4.5,0.2-8.9,2.3-13.1c2.1-4.2,5.6-8,10.6-11.4c2.7-1.9,5.5-3.4,8.2-4.6c2.8-1.2,5.4-2,7.7-2.5l2.7,11.8
				c-2.1,0.3-4.1,0.9-6.1,1.7c-1.9,0.8-3.9,1.9-5.8,3.2c-2.6,1.8-4.3,3.9-5,6.1c-0.8,2.3-0.8,4.6-0.1,7.1c0.7,2.4,1.8,4.8,3.5,7.2
				c1.9,2.7,3.9,4.7,5.9,6c2.1,1.3,4.2,1.9,6.3,1.9c2.1-0.1,4.3-0.8,6.4-2.3c0.7-0.5,1.5-1.1,2.4-1.9c0.9-0.8,1.6-1.4,2-1.9
				l-4.8-6.8l-7.7,5.4L365.4,291.5z"/>
		</g>
		<g>
			<path class="st3" d="M403.3,244.4c4.4-2,8.2-3.1,11.6-3.4c3.4-0.3,6.3,0.3,8.7,1.8c2.4,1.4,4.3,3.7,5.8,6.9
				c0.9,2,1.4,3.9,1.4,5.8c0.1,1.9-0.2,3.8-0.9,5.6c-0.6,1.8-1.6,3.6-2.9,5.3l23.6,14.6l-14.7,6.7l-18.2-12.9l-3.3,1.5l8,17.5
				l-13,5.9l-21.9-48.1L403.3,244.4z M407.6,254.3l-2.6,1.2l5,11l2.4-1.1c2-0.9,3.4-2.1,4.3-3.6c0.9-1.5,0.8-3.3-0.2-5.6
				c-0.7-1.6-1.8-2.5-3.2-2.9C411.8,252.9,409.9,253.2,407.6,254.3z"/>
		</g>
		<g>
			<path class="st3" d="M484.8,272.6l-4.9-9l-16.7,4.2L463,278l-15.2,3.8l3.9-55.7l18.5-4.6l29.8,47.3L484.8,272.6z M474.2,252.9
				l-4.3-7.9c-0.5-0.9-1.1-2.1-2-3.7c-0.9-1.6-1.7-3.2-2.6-4.9c-0.9-1.7-1.6-3.1-2.1-4.2c0.1,1.2,0.1,2.7,0.2,4.6
				c0,1.8,0.1,3.6,0.1,5.4c0,1.8,0,3.3,0,4.5l-0.1,9L474.2,252.9z"/>
		</g>
		<g>
			<path class="st3" d="M527,267.4l-14.3,1l-3-41.1l-12.9,0.9l-0.9-11.7l40-2.9l0.9,11.7l-12.8,0.9L527,267.4z"/>
		</g>
		<g>
			<path class="st3" d="M545.9,267.2l2.5-52.8l14.3,0.7l-2.5,52.8L545.9,267.2z"/>
		</g>
		<g>
			<path class="st3" d="M623.6,251.4c-0.8,4-2,7.5-3.6,10.6c-1.6,3.1-3.7,5.6-6.2,7.6c-2.5,2-5.5,3.3-8.9,3.9
				c-3.4,0.6-7.4,0.5-11.8-0.4c-4.4-0.9-8-2.2-10.9-4.1s-5.2-4.2-6.8-7c-1.6-2.8-2.6-5.9-2.9-9.4c-0.3-3.5-0.1-7.3,0.7-11.3
				c1.1-5.4,2.9-9.9,5.5-13.5c2.6-3.6,5.9-6.2,10.1-7.6c4.2-1.4,9.2-1.6,15-0.4c5.9,1.2,10.5,3.2,13.8,6.2c3.3,2.9,5.4,6.6,6.3,10.9
				C624.8,241.2,624.7,246,623.6,251.4z M588,244.4c-0.6,3.1-0.8,5.9-0.5,8.3c0.3,2.4,1,4.3,2.3,5.8c1.3,1.5,3.2,2.5,5.7,3
				c2.6,0.5,4.8,0.3,6.5-0.6c1.8-0.9,3.2-2.4,4.3-4.5s2-4.7,2.6-7.9c0.9-4.7,0.9-8.5-0.1-11.6c-1-3-3.4-4.9-7.2-5.7
				c-2.5-0.5-4.7-0.3-6.5,0.6c-1.8,0.9-3.3,2.5-4.4,4.6C589.5,238.6,588.6,241.2,588,244.4z"/>
		</g>
		<g>
			<path class="st3" d="M671.5,299.6l-17.2-7.5l-2.9-41.9l-0.3-0.1c-0.3,1.1-0.8,2.4-1.3,3.9c-0.5,1.5-1.1,3-1.7,4.6
				c-0.6,1.5-1.1,2.9-1.7,4.1l-9.5,21.9l-11.6-5l21-48.5l17.1,7.4l3,41.4l0.2,0.1c0.4-1.1,0.9-2.4,1.4-3.8s1.1-2.9,1.7-4.3
				c0.6-1.5,1.1-2.7,1.6-3.9l9.5-21.9l11.7,5.1L671.5,299.6z"/>
		</g>
		<g>
			<path class="st3" d="M782.6,319.6L738,350.8l-12.7-11.1l11.4-20.7c0.2-0.4,0.6-1,1.1-2s1.1-2,1.8-3.1c0.7-1.2,1.4-2.3,2.1-3.4
				s1.3-2,1.8-2.8c-0.7,0.6-1.5,1.3-2.5,2.2c-1,0.8-2.1,1.7-3.1,2.5c-1.1,0.8-2,1.6-2.9,2.2c-0.9,0.6-1.5,1.1-1.8,1.3l-19,14
				l-12.7-11.1l25-48.4l10.4,9.1l-13.1,23.7c-0.3,0.6-0.8,1.4-1.4,2.5c-0.6,1.1-1.3,2.2-2,3.5c-0.7,1.2-1.4,2.4-2.1,3.6
				c-0.7,1.1-1.3,2.1-1.8,2.8c1.1-1,2.4-2.1,3.9-3.3c1.5-1.2,3-2.4,4.6-3.7c1.6-1.2,3.1-2.3,4.5-3.4c1.4-1,2.5-1.9,3.4-2.5l16.7-12
				l10,8.7l-9.8,18c-0.5,0.9-1.2,2.2-2,3.7c-0.8,1.5-1.8,3.2-2.8,4.9c-1,1.7-2,3.5-3,5.1c-1,1.7-1.9,3.1-2.8,4.3
				c0.9-0.8,2.1-1.8,3.6-3c1.5-1.2,2.9-2.3,4.3-3.4c1.4-1.1,2.5-1.9,3.2-2.4l21.9-16.1L782.6,319.6z"/>
		</g>
		<g>
			<path class="st3" d="M768,389.3l-18.9-25.1l42.2-31.8l18.9,25.1l-9.2,6.9l-10.3-13.7l-6.6,5l9.5,12.6l-9.2,6.9l-9.5-12.6l-8,6
				l10.3,13.7L768,389.3z"/>
		</g>
		<g>
			<path class="st3" d="M787.1,423.2L772,395.7l46.3-25.5l15.2,27.5l-10,5.5l-8.3-15l-7.3,4l7.6,13.9l-10,5.5l-7.7-13.9l-8.7,4.8
				l8.3,15L787.1,423.2z"/>
		</g>
		<g>
			<path class="st3" d="M805.5,472.3l-5.4-15.2l15.5-16.6l-3.8-3.1l-16.7,5.9l-4.8-13.5l49.8-17.8l4.8,13.5l-21.6,7.7
				c1.3,0.2,2.6,0.4,4,0.8c1.4,0.3,2.6,0.7,3.9,1.1l19,5l5.2,14.7l-27.9-7.7L805.5,472.3z"/>
		</g>
	</g>
	<g>
		<path class="st3" d="M540,793.8L403.5,676.4c-28-24.1-44.1-59.1-44.1-96V363l2.3-1.3c0.8-0.4,76.3-43.9,178.3-43.9
			s177.5,43.4,178.3,43.9l2.3,1.3v217.4c0,36.9-16.1,71.9-44.1,96L540,793.8z M368.7,368.4v212c0,34.2,14.9,66.7,40.8,89L540,781.6
			l130.5-112.2c26-22.3,40.9-54.8,40.9-89v-212C698.1,361.3,629.5,327,540,327C450.4,327,381.9,361.3,368.7,368.4z"/>
	</g>
	<g>
		<g>
			<path class="st3" d="M661,446.2c-1.9,5.3-5.1,14.5-6.5,19.5c-0.9,3-1.6,6-2.2,8.5c-1.7,7.3-2.8,14.7-3.4,22.2
				c-0.9,0.2-1.8,0.4-2.7,0.6c-6,1.3-12.1,2.5-18.1,3.8c-6-1.3-12.1-2.5-18.1-3.8c-0.9-0.2-1.8-0.4-2.7-0.6
				c-0.6-7.5-1.8-14.9-3.4-22.2c-0.6-2.5-1.3-5.4-2.2-8.5c-1.4-4.9-4.3-13.9-6.1-19.3c0.1,0.1,0.2,0.1,0.3,0.2
				c0.2,0.1,0.4,0.3,0.7,0.4c1,0.6,2,1.3,3,2c2.9,2.2,5.4,4.8,7.5,7.8c0,0.1,0.1,0.3,0.1,0.4c1,4.6,2,10,3,14.6
				c0.1-0.3,0.7-1.5,0.7-1.8c0.4,0.1,0.8,0.3,1.2,0.4c0.7,0.2,1.4,0.4,2.1,0.7c1.4,0.5,2.9,0.9,4.3,1.4c1.1,0.3,2.1,0.7,3.2,1
				c2.1,0.7,4.3,1.4,6.5,2.1c3-1,6-1.9,8.9-2.8c0.6-0.2,1.2-0.4,1.9-0.6c1.8-0.6,3.7-1.2,5.5-1.8c0.4-0.1,0.7-0.2,1.1-0.3
				c0.1,0.3,0.4,1.5,0.5,1.8c0.8-3.7,1.8-7.9,2.6-11.9c0.1-0.5,0.2-0.9,0.3-1.4c0.1-0.6,0.3-1.2,0.4-1.8c2.1-3,4.6-5.6,7.5-7.8
				c1-0.8,2.1-1.5,3.2-2.2c0.1-0.1,0.3-0.2,0.4-0.2C660.6,446.4,660.8,446.3,661,446.2z"/>
		</g>
		<g>
			<path class="st3" d="M643.3,388.1C643.3,388.2,643.3,388.2,643.3,388.1c-9.7-4.3-20.8-4.3-30.6,0l0,0
				c-11.9,5.3-20.1,16.7-20.1,29.9l0,27c0.8,0.4,1.7,0.8,2.7,1.4c0.1,0.1,0.2,0.1,0.3,0.2c0.2,0.1,0.4,0.3,0.7,0.4c1,0.6,2,1.3,3,2
				c2.9,2.2,5.4,4.8,7.5,7.8c0,0.1,0.1,0.3,0.1,0.4c1,4.6,2,10,3,14.6c0.1-0.3,0.7-1.5,0.7-1.8c0.4,0.1,0.8,0.3,1.2,0.4
				c0.7,0.2,1.4,0.4,2.1,0.7c1.4,0.5,2.9,0.9,4.3,1.4c1.1,0.3,2.1,0.7,3.2,1c2.1,0.7,4.3,1.4,6.5,2.1c3-1,6-1.9,8.9-2.8
				c0.6-0.2,1.2-0.4,1.9-0.6c1.8-0.6,3.7-1.2,5.5-1.8c0.4-0.1,0.7-0.2,1.1-0.4l0,0c0.1,0.3,0.4,1.5,0.5,1.8
				c0.8-3.7,1.8-7.9,2.6-11.9c0.1-0.5,0.2-0.9,0.3-1.4c0.1-0.6,0.3-1.2,0.4-1.8c2.1-3,4.6-5.6,7.5-7.8c1-0.8,2.1-1.5,3.2-2.2
				c0.1-0.1,0.3-0.2,0.4-0.2c0.2-0.1,0.4-0.2,0.6-0.4c0.8-0.4,1.6-0.8,2.3-1.2l0,0l0-27C663.3,404.9,655.1,393.5,643.3,388.1z
				 M641,389.2c0.5,0,1,0.4,1,0.8s-0.4,0.8-1,0.8l0,0c-0.5,0-1-0.4-1-0.8S640.4,389.2,641,389.2z M639,398.4c0.8,0,1.4,0.6,1.4,1.2
				s-0.6,1.2-1.4,1.2l0,0c-0.8,0-1.4-0.6-1.4-1.2C637.5,399,638.2,398.4,639,398.4z M618.4,399.6c0,0.7-0.6,1.2-1.4,1.2l0,0
				c-0.8,0-1.4-0.6-1.4-1.2c0-0.7,0.6-1.2,1.4-1.2S618.4,399,618.4,399.6z M614.9,389.2c0.5,0,1,0.4,1,0.8s-0.4,0.8-1,0.8
				c-0.5,0-1-0.4-1-0.8C614,389.5,614.4,389.2,614.9,389.2z M661.8,444c-0.5,0.3-1,0.5-1.5,0.8c-0.2,0.1-0.4,0.2-0.7,0.4
				c-0.2,0.1-0.3,0.2-0.4,0.2c-4.4,2.6-8.3,6.2-11.2,10.4l-0.2,0.3l-0.1,0.3c-0.1,0.4-0.2,0.8-0.3,1.2l-0.1,0.6
				c-0.1,0.2-0.1,0.5-0.2,0.7c-0.1,0.2-0.1,0.5-0.2,0.7c-0.2,1-0.4,2-0.7,3c-0.4,2-0.9,4-1.3,5.9l-0.1,0c-0.2,0.1-0.4,0.1-0.6,0.2
				c-0.2,0.1-0.3,0.1-0.5,0.1c-1.3,0.4-2.5,0.8-3.7,1.2c-0.6,0.2-1.2,0.4-1.8,0.6c-0.6,0.2-1.2,0.4-1.9,0.6c-2,0.7-4.1,1.3-6.2,2
				c-0.7,0.2-1.5,0.5-2.2,0.7c-1.3-0.4-2.5-0.8-3.7-1.2l-2.3-0.7h0c-1.1-0.3-2.1-0.7-3.2-1c-1.4-0.5-2.9-0.9-4.3-1.4
				c-0.4-0.1-0.7-0.2-1.1-0.3c-0.3-0.1-0.7-0.2-1-0.3l0,0l0,0l-0.3-0.1c-0.3-0.1-0.6-0.2-0.9-0.3l-0.4-0.1c-0.3-1.5-0.6-3-0.9-4.5
				c-0.5-2.4-1-4.9-1.5-7.1v0v0c0-0.1,0-0.1,0-0.2c0-0.1,0-0.2-0.1-0.3l-0.1-0.3l-0.2-0.2c-2.2-3.1-4.8-5.8-7.8-8.1
				c-1-0.8-2-1.5-3.1-2.1c-0.2-0.1-0.5-0.3-0.7-0.4c-0.1-0.1-0.2-0.1-0.3-0.2c-0.6-0.3-1.3-0.7-1.9-1l0-26c0-6,1.8-11.9,5.3-17
				c2.9-4.2,6.8-7.8,11.5-10.3c0,0.2,0,0.4,0,0.6c0,4,0.8,7.9,2.3,11.6l0,0l0,0c0.2,0.5,0.6,0.8,1,1l0,0l0,0c4.4,1.5,9,2.3,13.7,2.3
				c4.6,0,9.3-0.8,13.7-2.3l0,0l0,0c0.5-0.2,0.8-0.5,1-1l0,0l0,0c1.5-3.7,2.3-7.6,2.3-11.6c0-0.2,0-0.4,0-0.6
				c4.6,2.5,8.5,6,11.5,10.3c3.5,5.1,5.3,10.9,5.3,17L661.8,444z"/>
		</g>
		<g>
			<path class="st3" d="M628,457.2l-0.8-1.9c-1.1-2.8-2.5-5.6-3.9-8.3c-0.5-0.9-1-1.8-1.6-2.8c-1.7-2.8-3.6-5.4-5.6-7.9l-0.4-0.4
				l12.3-21l0.7,1.2c3.7,6.4,7.5,12.9,11.2,19.3l0.3,0.5l-0.4,0.4c-2,2.5-3.9,5.2-5.6,7.9c-0.6,0.9-1.1,1.9-1.6,2.8
				c-1.5,2.7-2.8,5.5-3.9,8.3L628,457.2z M617.7,435.6c1.9,2.4,3.7,5,5.3,7.7c0.6,1,1.1,1.9,1.7,2.8c1.2,2.2,2.3,4.4,3.3,6.6
				c1-2.3,2.1-4.5,3.3-6.7c0.5-0.9,1.1-1.9,1.7-2.8c1.6-2.6,3.4-5.2,5.3-7.7c-3.4-5.8-6.8-11.7-10.2-17.5L617.7,435.6z"/>
		</g>
	</g>
	<path class="st3" d="M540,540v247.7l133.5-114.8c26.9-23.2,42.5-57,42.5-92.5V540H540z M590.7,660.7c0,0-9.5-9,5-26.1
		c1-1.1,1.7-2.3,2.2-3.7c2.3-7.2-4.7-15.2-4.7-15.2s-7.4,7.7-12.5,9.4c-0.3,0.1-0.6,0.4-0.7,0.7c-0.5,1.1-1.7,3.6-3.1,4.7
		c-0.7,0.5-1.5,0.7-2.2,0.3c-0.3-0.2-0.7-0.3-1-0.2c-1.7,0.2-6.8,0.3-6.9-5.9c0-1.1,0.3-2.2,0.8-3.1l2.7-4.8c0.6-1,1-2.1,1.3-3.3
		c0.4-1.6,1.2-4.2,2.5-6.6c0,0.1-0.4,0.5-1.4,0.8c-0.7,0.2-1.6,0.4-3,0.4c-0.3,0-0.5,0-0.8,0c0,0,4.7-12,10.7-12c0,0,0.2-1,0.3-2.4
		c0.3-2.7,0.7-6.9,0-9.1c0,0,3.7,1.7,5,5.7c0,0,1.2-5.7-2.7-8.9c0,0,5.2,0,9.6,8.2c12.2-2,24.6,2.1,33.2,10.9
		c-2.3-0.7-4.7-1.2-7.1-1.4c-0.2,0-0.4,0-0.6-0.1c1.5,0.7,2.9,1.5,4.2,2.4c5.4,4,6.7,9.4,9.3,15.7c1,2.3,1.7,5.9,1.8,8.4
		c0,0.8,0.1,1.5,0.1,2.3c0,2-1.3,10.4-22.5,15.1C588.9,647.7,590.7,655.2,590.7,660.7z M637.2,642.5c-6.4,6.2-15,9.5-27.2,12.5
		c-6.9,1.7-11.5,0.6-15,8.7c0,0,0,0.1,0,0.1l-0.1,0.1c0-0.1,0.1-0.1,0.1-0.2c0.4-8.8,4.7-10.4,11.7-12.1c12.2-3,19.9-6.1,26.8-11.8
		c5.9-4.8,5.5-14,6-19.4c0,0,1.8-29.3,11.9-32.2c5.2-1.5,17.1-5.4,22.7-8c9.9-4.7,14.9-13.6,14.9-13.6c-3.3,11-8.5,16.1-14.6,18.5
		c-5.6,2.2-9.5,3.6-19.6,6.4c-10.1,2.8-11.2,29.3-11.2,29.3C643.1,624.2,642.9,636.9,637.2,642.5z M671.8,627.9
		c-5.1,2.9-14.7,3.5-18,4.6c-3.3,1.1-5.9,2.9-8.2,4c0,0,1.2-6.7,8.2-9.4c7.1-2.7,12.7-3.6,15.4-4.5s9.9-4.5,11.7-7.3
		C681,615.3,678.4,624,671.8,627.9z M675.6,613.6c-3.3,2.2-13.6,3.7-17,4.8c-3.4,1.1-7.8,3.6-11.2,6.5c0,0,1.3-9.6,13.1-13.3l10-2.8
		c0,0,12-4.2,14.5-8.4C684.9,600.4,681.9,609.9,675.6,613.6z M682.1,597c-3.7,3.5-9.2,5.1-11.1,5.7c-1.9,0.6-9.6,2-11.5,2.8
		c-1.8,0.8-4.2,1.8-8.2,5.6c0,0,1.6-10.1,7.7-12.2c6.1-2.2,10.1-3.3,11.5-3.8c1.6-0.6,4.7-1.6,8.6-3.9c2.9-1.8,8-5.7,10-8.1
		C689.2,583.1,685.8,593.5,682.1,597z"/>
	<g>
		<g>
			<path class="st3" d="M482.4,590.4c-1.2,1-2.5,2-3.6,3.3c-1.2,1.2-2.3,2.6-3.3,4.1l-1.9-4.9l-2.1-5.7L461,560.2l-10.4,27.1
				l-2.1,5.5l-1.9,4.9c-0.9-1.5-2-2.8-3.2-4.1c-1.2-1.3-2.5-2.4-3.8-3.4c-7-5.5-14.8-7.6-14.8-7.6c0.8,0.8,1.5,1.7,2.1,2.9
				c0.8,1.4,1.5,3,2,4.7l0.1,0.3c3,9.5,3,22.1,3,22.1l57.8,0.1c0,0,0.1-13.4,3.4-22.9c0.5-1.5,1.1-2.9,1.8-4.1l0.1-0.2
				c0.6-1,1.2-2,2-2.7C497.2,582.8,489.4,584.9,482.4,590.4z M461,599.2c1.4,0,2.5,2,2.5,4.5s-1.1,4.5-2.5,4.5c-1.4,0-2.5-2-2.5-4.5
				S459.6,599.2,461,599.2z M439.8,599.4c1.2-0.2,2.5,1.6,2.9,4c0.4,2.4-0.1,4.6-1.3,4.8c-1.2,0.2-2.5-1.6-2.9-4
				S438.6,599.6,439.8,599.4L439.8,599.4z M480.5,608.2C480.5,608.2,480.5,608.2,480.5,608.2c-1.2-0.2-1.7-2.3-1.2-4.8
				c0.4-2.4,1.7-4.2,2.8-4c1.1,0.2,1.6,2.3,1.2,4.8c-0.4,2.2-1.5,3.9-2.5,4C480.6,608.2,480.6,608.2,480.5,608.2L480.5,608.2z"/>
		</g>
		<g>
			<path class="st3" d="M482.4,675c-25,0.1-35.8-36.6-35.8-36.6c-7.2,11-21.5,11.1-21.5,11.1c14.3-7.4,6.9-29.6,6.9-29.6h11.2
				l38.2,0h8.5c-14.3,18.4,6.8,29.4,6.8,29.4c-14.3,0-25-11-25-11C464.5,664.1,482.4,675,482.4,675z"/>
		</g>
		<g>
			<polygon class="st3" points="417.7,650.9 420.2,651.7 421.8,653.9 422.6,651.3 424.7,649.6 422.2,648.8 420.6,646.6 419.8,649.2 
							"/>
		</g>
		<g>
			<polygon class="st3" points="482.8,675.6 484.2,677.9 484,680.6 486.2,679.2 488.9,679.4 487.5,677.1 487.7,674.4 485.5,675.8 
							"/>
		</g>
		<g>
			<polygon class="st3" points="497.5,649.2 500.1,649.7 501.8,651.8 502.4,649.1 504.4,647.2 501.8,646.7 500,644.7 499.5,647.3 
							"/>
		</g>
	</g>
	<g>
		<ellipse class="st3" cx="442" cy="430.9" rx="1.3" ry="1.3"/>
		<polygon class="st3" points="417.5,438.9 486.6,438.9 481.6,434.5 481.3,434.5 422.8,434.5 422.5,434.5 		"/>
		<path class="st3" d="M483.3,432.2c0.7,0,1.3-0.6,1.3-1.3c0-0.7-0.6-1.3-1.3-1.3c-0.7,0-1.3,0.6-1.3,1.3
			C482,431.6,482.6,432.2,483.3,432.2z"/>
		<ellipse class="st3" cx="462.7" cy="430.9" rx="1.3" ry="1.3"/>
		<ellipse class="st3" cx="421.4" cy="430.9" rx="1.3" ry="1.3"/>
		<path class="st3" d="M364.1,365.6V540H540V322.4C438.1,322.4,364.1,365.6,364.1,365.6z M463.8,393.6c0,0,5.2,2,13.8,11
			c7.2,7.5,8,8.3,8.1,8.4c0,0,0,0,0,0s0,0,0,0c0,0-1.9,2.6-5.2,1l-5.7-4.2l-7.2-4.2c0,0-0.2-2.2-1.7-2.9c-0.2-0.1-0.5-0.2-0.8-0.1
			l-15.9,0.3c0,0-0.8,0.6,0,1.2l15.1-0.4c0.9,0,1.9,0.4,2.1,1.7c0.1,0.3,0,0.6-0.2,0.9c-0.4,0.6-1.2,1.2-3.7,1.5l-21.7,2.8
			c0,0-2.3,0.6-5-1.8l-5.5-5.5l11.9-12l3.4,2.6L463.8,393.6z M436.6,385.4c0.8-0.2,1.6-0.4,2.4-0.5l3.3,3.3l-15.1,15.2l-10.1-9.6
			C423,389.9,429.7,387.1,436.6,385.4z M484.5,494.6c-4.1,2.4-8.5,4.4-13,5.8c-0.3,0.1-0.5,0.2-0.8,0.2l-5.2-4.5l2.7-2.7l-1.4-1.4
			l-3.6,3.6l-21.5-2.4c0,0-1.8-1-4-2.5l1.9-2.2l-2.5-0.9l-1.5,1.8c-2.1-1.6-5.3-4.5-8.3-7.6l1.5-1.6l-0.1,0.1l-2.1-1.8l-1.2,1.2
			c-4.8-5-5.5-5.7-5.6-5.7c0.1-0.1,2-2.6,5.2-1l4.2,3l-1.1,1.1l2,1.8l1.2-1.4l6.6,3.8c0,0,0.2,2.2,1.7,2.9c0.1,0.1,0.3,0.1,0.4,0.1
			l-1.4,1.7l2.5,0.9l1.9-2.2l4.7-0.1l3-0.1l5.7-0.1c0,0,0.3-0.8-0.1-1.1l-4.4,0.2l-0.3-1.8l-3.5,0.3l0.3,1.5l-6.3,0.2
			c-0.2,0-0.4,0-0.7-0.1c-0.6-0.2-1.6-0.7-1.9-2c-0.1-0.3,0-0.6,0.2-0.9c0.4-0.6,1.6-1.4,4.2-1.6l3.7-0.6l0.2,1.5l3.4-0.3v0
			l-0.3-1.6l13.7-1.8l10.4,7.5l-3.7,3.8l1.5,1.4l2.6-2.6L484.5,494.6C484.6,494.6,484.6,494.6,484.5,494.6z M416.9,467.4
			c0,0,1.7-3.2,1.6-4.4l0-0.4h67l0,0.4c-0.1,1.1,1.6,4.4,1.6,4.4H416.9z M432.5,457.6v-10h8.8v3.8h-5v6.3h11.3v-10h3.2l0,0.3
			l-0.3,3.1h3.2l-0.3-3.1l0-0.3h3.2v10h11.3v-6.3h-5v-3.8h8.8v10h11.3v-6.3h-5v-3.8h8.7l-0.9,13.5h-67.2l-0.9-13.5h8.7v3.8h-5v6.3
			H432.5z M488.1,434.1c0,0.3-0.2,0.5-0.5,0.5h-5.7l5.2,4.6l-0.5,7.2h-10v6.3h5v3.8h-8.8v-10.1h-11.3v6.3h5v3.8h-8.8v-10.1h-4.3
			c0.5-0.4,0.7-1,0.7-1.6c0-0.9-0.5-1.6-1.4-1.9c-0.5-0.2-1-0.2-1.4,0c-0.8,0.3-1.4,1.1-1.4,1.9c0,0.6,0.3,1.2,0.7,1.6h-4.3v10.1
			h-8.8v-3.8h5v-6.3h-11.3v10.1h-8.8v-3.8h5v-6.3h-10l-0.5-7.2l5.3-4.6h-5.7c-0.3,0-0.5-0.2-0.5-0.5l-0.4-6.8l73,0.1L488.1,434.1z
			 M415.5,425.9c0.8-5.4,6.9-5.4,9-5.4h55.1c2,0,8.1,0,9,5.4H415.5z"/>
	</g>
</g>
</svg>
